<svg width="600" height="400" viewBox="0 0 600 400" fill="none" xmlns="http://www.w3.org/2000/svg">
  <rect width="600" height="400" fill="#F8FAFC"/>
  <circle cx="300" cy="200" r="150" fill="#DBEAFE"/>
  <path d="M250 170C250 157.85 254.519 146.126 262.832 137.322C271.145 128.519 282.611 123.333 294.643 123.333C306.675 123.333 318.141 128.519 326.454 137.322C334.767 146.126 339.286 157.85 339.286 170V183.333C347.024 183.333 354.446 186.228 359.866 191.541C365.286 196.855 368.214 204.144 368.214 211.667V255C368.214 262.522 365.286 269.812 359.866 275.125C354.446 280.439 347.024 283.333 339.286 283.333H250C242.262 283.333 234.84 280.439 229.42 275.125C224 269.812 221.071 262.522 221.071 255V211.667C221.071 204.144 224 196.855 229.42 191.541C234.84 186.228 242.262 183.333 250 183.333V170Z" stroke="#1D4ED8" stroke-width="2" stroke-linecap="round" stroke-linejoin="round"/>
</svg>
